<?xml version="1.0" encoding="UTF-8"?>
<!DOCTYPE svg PUBLIC "-//W3C//DTD SVG 1.1//EN" "http://www.w3.org/Graphics/SVG/1.1/DTD/svg11.dtd">
<svg xmlns="http://www.w3.org/2000/svg" version="1.1" width="512px" height="512px" style="shape-rendering:geometricPrecision; text-rendering:geometricPrecision; image-rendering:optimizeQuality; fill-rule:evenodd; clip-rule:evenodd" xmlns:xlink="http://www.w3.org/1999/xlink">
<g><path style="opacity:0.986" fill="#000" d="M 416.5,154.5 C 413.399,149.564 409.399,145.397 404.5,142C 365.167,119.333 325.833,96.6667 286.5,74C 267.18,62.128 247.513,61.4613 227.5,72C 187.33,95.5859 146.997,118.919 106.5,142C 101.601,145.397 97.6012,149.564 94.5,154.5C 78.3918,145.61 62.3918,136.443 46.5,127C 50.466,122.033 54.7993,117.366 59.5,113C 112.167,82.3333 164.833,51.6667 217.5,21C 240.338,8.24966 263.671,7.24966 287.5,18C 342.425,49.2674 397.092,80.934 451.5,113C 455.333,116.833 459.167,120.667 463,124.5C 463.667,125.5 463.667,126.5 463,127.5C 447.391,136.385 431.891,145.385 416.5,154.5 Z"/></g>
<g><path style="opacity:0.994" fill="#a5de37" d="M 416.5,154.5 C 372.861,179.655 329.194,204.822 285.5,230C 273.681,238.153 263.514,247.986 255,259.5C 246.279,246.391 235.112,235.891 221.5,228C 178.998,203.636 136.665,179.136 94.5,154.5C 97.6012,149.564 101.601,145.397 106.5,142C 146.997,118.919 187.33,95.5859 227.5,72C 247.513,61.4613 267.18,62.128 286.5,74C 325.833,96.6667 365.167,119.333 404.5,142C 409.399,145.397 413.399,149.564 416.5,154.5 Z"/></g>
<g><path style="opacity:0.984" fill="#000" d="M 265.5,446.5 C 272.557,445.091 279.224,442.591 285.5,439C 324.833,416.333 364.167,393.667 403.5,371C 417.384,361.418 425.884,348.252 429,331.5C 429.667,281.5 429.667,231.5 429,181.5C 428.604,178.343 427.771,175.343 426.5,172.5C 442.023,162.815 457.857,153.482 474,144.5C 475.156,148.123 476.156,151.789 477,155.5C 478.642,220.14 478.975,284.806 478,349.5C 475.818,372.323 465.318,390.156 446.5,403C 391.663,434.586 336.663,465.92 281.5,497C 276.362,499.118 271.029,500.285 265.5,500.5C 265.5,482.5 265.5,464.5 265.5,446.5 Z"/></g>
<g><path style="opacity:0.985" fill="#000" d="M 83.5,172.5 C 83.162,174.854 82.662,177.187 82,179.5C 81.3333,230.167 81.3333,280.833 82,331.5C 84.6941,349.064 93.5275,362.564 108.5,372C 150.5,396 192.5,420 234.5,444C 237.72,445.352 241.053,446.186 244.5,446.5C 244.5,464.5 244.5,482.5 244.5,500.5C 235.193,499.683 226.526,496.849 218.5,492C 167.167,462.333 115.833,432.667 64.5,403C 45.6818,390.156 35.1818,372.323 33,349.5C 32.0288,284.809 32.3621,220.143 34,155.5C 34.561,151.905 35.7276,148.572 37.5,145.5C 53.2253,154.022 68.5586,163.022 83.5,172.5 Z"/></g>
<g><path style="opacity:0.996" fill="#a5de37" d="M 83.5,172.5 C 129.767,197.967 175.433,224.467 220.5,252C 233.339,262.176 241.172,275.343 244,291.5C 244.5,343.166 244.667,394.832 244.5,446.5C 241.053,446.186 237.72,445.352 234.5,444C 192.5,420 150.5,396 108.5,372C 93.5275,362.564 84.6941,349.064 82,331.5C 81.3333,280.833 81.3333,230.167 82,179.5C 82.662,177.187 83.162,174.854 83.5,172.5 Z"/></g>
<g><path style="opacity:0.995" fill="#a5de37" d="M 426.5,172.5 C 427.771,175.343 428.604,178.343 429,181.5C 429.667,231.5 429.667,281.5 429,331.5C 425.884,348.252 417.384,361.418 403.5,371C 364.167,393.667 324.833,416.333 285.5,439C 279.224,442.591 272.557,445.091 265.5,446.5C 265.333,395.499 265.5,344.499 266,293.5C 269.661,272.168 280.828,256.002 299.5,245C 341.739,220.578 384.072,196.411 426.5,172.5 Z"/></g>
</svg>
